<?xml version="1.0" standalone="no"?>
<!DOCTYPE svg PUBLIC "-//W3C//DTD SVG 20010904//EN"
 "http://www.w3.org/TR/2001/REC-SVG-20010904/DTD/svg10.dtd">
<svg version="1.0" xmlns="http://www.w3.org/2000/svg"
 width="1147.000000pt" height="1147.000000pt" viewBox="0 0 1147.000000 1147.000000"
 preserveAspectRatio="xMidYMid meet">
<metadata>
Created by potrace 1.14, written by Peter Selinger 2001-2017
</metadata>
<g transform="translate(0.000000,1147.000000) scale(0.100000,-0.100000)"
fill="#000000" stroke="none">
<path d="M4625 7374 c-273 -27 -470 -63 -701 -130 -546 -157 -1013 -421 -1391
-787 -250 -243 -346 -408 -303 -521 24 -64 128 -145 187 -146 29 0 53 26 53
58 0 15 13 54 29 87 90 188 313 423 616 650 182 137 318 220 530 325 390 193
756 295 1156 321 248 17 358 -4 422 -81 94 -111 22 -311 -260 -721 l-94 -136
-62 -7 c-200 -23 -540 -103 -714 -170 -251 -96 -428 -220 -494 -347 -34 -66
-32 -160 4 -222 29 -49 76 -82 105 -72 11 3 23 24 30 52 34 124 336 334 665
461 130 51 311 104 299 88 -5 -6 -69 -87 -142 -181 -359 -455 -468 -608 -578
-807 -107 -194 -152 -381 -122 -509 32 -135 115 -229 204 -229 53 0 65 26 75
161 14 171 55 285 198 540 100 178 207 342 491 750 233 336 249 357 282 362
146 25 544 41 602 24 l27 -7 -48 -103 c-170 -363 -271 -697 -271 -892 0 -227
67 -363 209 -428 38 -18 65 -22 161 -22 113 0 116 1 190 37 204 102 406 298
743 718 l27 35 -16 -40 c-65 -160 -78 -216 -78 -350 -1 -155 17 -213 90 -294
85 -94 227 -135 340 -97 63 21 176 106 231 174 l43 53 0 -33 c0 -85 46 -169
106 -194 46 -19 121 -17 169 5 140 64 396 326 705 721 122 156 330 443 330
456 0 19 -28 36 -48 30 -10 -4 -89 -100 -175 -215 -306 -407 -576 -707 -690
-766 -49 -26 -58 -28 -82 -17 -25 12 -27 16 -22 58 9 88 123 283 319 550 129
175 126 169 86 194 -18 11 -52 27 -76 37 -41 15 -43 17 -35 47 4 17 8 76 8
131 0 112 -18 166 -71 218 -48 48 -82 60 -180 65 -199 9 -415 -85 -601 -261
-66 -63 -74 -68 -88 -53 -9 9 -19 16 -21 16 -21 0 -55 -39 -153 -175 -327
-453 -575 -713 -766 -802 -47 -22 -74 -28 -125 -27 -182 2 -254 143 -204 404
l16 85 137 112 c225 186 509 462 684 666 152 176 321 425 383 566 126 284 62
470 -162 471 -298 1 -668 -344 -974 -906 l-32 -60 -46 23 c-42 21 -57 23 -211
22 -91 0 -206 -4 -256 -8 -49 -4 -91 -7 -92 -6 -1 0 34 57 77 127 163 260 273
473 286 555 17 105 -57 220 -185 287 -122 64 -203 78 -471 81 -129 2 -253 1
-275 -1z m2295 -299 c43 -52 -64 -295 -246 -555 -206 -294 -505 -615 -768
-824 -39 -31 -71 -54 -73 -52 -7 7 58 162 127 301 185 378 418 722 640 946
119 120 172 161 237 185 50 17 68 17 83 -1z m827 -1019 c47 -55 38 -177 -22
-296 -30 -59 -79 -129 -150 -216 l-26 -32 26 -30 c14 -16 25 -35 25 -41 0 -14
-148 -223 -229 -323 -74 -92 -186 -198 -243 -231 -86 -50 -157 -44 -193 16
-26 43 -27 192 -1 292 41 160 133 363 233 515 68 103 247 284 319 322 114 61
220 71 261 24z"/>
<path d="M10588 6581 c-116 -37 -221 -128 -274 -238 -45 -91 -44 -171 5 -463
52 -308 71 -476 71 -610 -1 -226 -56 -349 -173 -381 -56 -15 -151 2 -185 33
-33 30 -62 95 -62 138 0 71 -53 105 -86 55 -13 -20 -16 -41 -12 -98 8 -118 63
-202 171 -259 37 -21 56 -23 172 -23 119 1 136 3 194 28 164 69 374 245 564
471 197 236 505 671 494 700 -11 27 -62 20 -82 -11 -49 -75 -343 -462 -432
-568 -99 -118 -232 -259 -239 -253 -1 2 2 24 8 48 21 94 4 267 -57 565 -50
244 -58 296 -59 400 -1 142 8 167 112 303 83 109 89 126 57 158 -20 20 -34 24
-77 23 -29 0 -79 -8 -110 -18z"/>
<path d="M8797 6207 c-21 -178 -225 -585 -589 -1176 -105 -171 -118 -197 -109
-217 15 -33 82 -75 131 -81 38 -5 45 -2 82 33 52 51 147 168 408 504 317 410
456 571 595 693 119 104 222 143 242 92 10 -28 -47 -121 -193 -314 -239 -316
-349 -496 -389 -636 -22 -74 -23 -198 -3 -245 21 -50 67 -101 105 -116 52 -22
132 -18 189 11 187 93 480 416 866 955 152 213 153 214 132 234 -8 9 -19 16
-24 16 -17 0 -51 -40 -156 -180 -205 -276 -379 -486 -529 -637 -157 -159 -216
-201 -269 -187 -73 18 -35 104 182 409 189 265 253 364 313 489 48 98 53 115
57 190 4 68 1 91 -16 129 -31 70 -69 89 -162 84 -65 -3 -86 -9 -155 -45 -156
-82 -307 -215 -525 -462 -77 -88 -140 -158 -140 -156 0 2 34 73 75 158 146
296 151 385 28 472 -28 19 -58 30 -91 34 l-49 4 -6 -55z"/>
<path d="M340 5624 c-157 -42 -248 -161 -272 -354 -16 -130 0 -250 47 -347 64
-129 163 -191 325 -200 202 -13 337 70 401 247 21 58 24 82 24 215 -1 167 -13
220 -75 310 -82 120 -277 175 -450 129z m197 -136 c96 -24 149 -112 160 -265
15 -208 -61 -343 -203 -359 -102 -12 -182 34 -225 128 -21 47 -24 67 -24 188
0 120 3 141 23 186 51 112 143 154 269 122z"/>
<path d="M1172 5618 c-17 -17 -17 -859 0 -876 7 -7 37 -12 68 -12 31 0 61 5
68 12 9 9 12 91 12 306 l0 294 186 -283 c102 -156 195 -294 207 -306 17 -19
31 -23 82 -23 34 0 66 5 73 12 17 17 17 859 0 876 -7 7 -37 12 -68 12 -31 0
-61 -5 -68 -12 -9 -9 -12 -91 -12 -307 l0 -296 -23 40 c-62 107 -362 557 -378
565 -25 14 -133 12 -147 -2z"/>
<path d="M2223 5623 c-10 -4 -13 -102 -13 -443 0 -390 2 -439 16 -444 9 -3
118 -6 244 -6 253 0 240 -4 240 70 0 72 6 70 -176 70 l-164 0 0 374 c0 332 -2
375 -16 380 -18 7 -113 7 -131 -1z"/>
<path d="M2760 5615 c-10 -12 12 -52 124 -229 l136 -214 0 -205 c0 -240 -1
-237 89 -237 31 0 62 5 69 12 9 9 12 70 12 215 l0 202 135 214 c74 118 135
221 135 230 0 20 -21 27 -89 27 -71 0 -72 -1 -177 -177 -60 -101 -81 -130 -90
-120 -6 6 -48 73 -93 148 -44 75 -88 140 -97 143 -33 12 -141 6 -154 -9z"/>
</g>
</svg>
